<svg viewBox="0 0 255 43" xmlns="http://www.w3.org/2000/svg" data-logo="logo">
        <g transform="translate(0, 1) rotate(0)" id="logogram" style="opacity: 1;"><path fill="#0A2463" d="M6.44649 8.24049V15.9847C7.05349 15.8378 7.6496 15.6437 8.22926 15.4036C9.69678 14.7957 11.0302 13.9048 12.1534 12.7816C13.2766 11.6584 14.1675 10.325 14.7754 8.85746C15.1553 7.94029 15.42 6.98197 15.5651 6.00442C12.4602 6.30501 9.38828 7.05037 6.44649 8.24049ZM0.754395 4.49805V16.3243V22.0164V22.1943C0.754395 32.1165 8.7979 40.16 18.7201 40.16C28.6422 40.16 36.6857 32.1165 36.6857 22.1943V22.0164V16.3243V4.49805L34.0549 3.35287C24.2749 -0.904325 13.1652 -0.904325 3.38521 3.35287L0.754395 4.49805ZM6.44753 22.3563C6.52078 28.0198 10.43 32.7583 15.6961 34.0926C15.6936 32.5108 15.3808 30.9448 14.7754 29.4833C14.1675 28.0158 13.2766 26.6824 12.1534 25.5592C11.0302 24.436 9.69678 23.545 8.22926 22.9372C7.64993 22.6972 7.05418 22.5032 6.44753 22.3563ZM18.5422 24.4607C17.8615 23.4069 17.0696 22.4256 16.1783 21.5343C15.287 20.6429 14.3056 19.8511 13.2519 19.1704C14.3056 18.4897 15.287 17.6978 16.1783 16.8065C17.0696 15.9152 17.8615 14.9338 18.5422 13.88C19.2229 14.9338 20.0147 15.9152 20.9061 16.8065C21.7974 17.6978 22.7787 18.4897 23.8325 19.1704C22.7787 19.8511 21.7974 20.6429 20.9061 21.5343C20.0147 22.4256 19.2229 23.4069 18.5422 24.4607ZM21.3882 34.177C26.8584 32.9644 30.9556 28.1018 30.9934 22.2756C30.2635 22.4292 29.5476 22.6503 28.8551 22.9372C27.3876 23.545 26.0542 24.436 24.931 25.5592C23.8078 26.6824 22.9168 28.0158 22.309 29.4833C21.7011 30.9508 21.3882 32.5237 21.3882 34.1121V34.177ZM28.8551 15.4036C29.5476 15.6905 30.2636 15.9116 30.9936 16.0652V8.24049C27.938 7.00431 24.7419 6.24799 21.5145 5.97153C21.6585 6.96047 21.9248 7.93001 22.309 8.85746C22.9168 10.325 23.8078 11.6584 24.931 12.7816C26.0542 13.9048 27.3876 14.7957 28.8551 15.4036Z" clip-rule="evenodd" fill-rule="evenodd"></path></g>
        <g transform="translate(42, 3.5)" id="logotype" style="opacity: 1;"><path d="M15.77 29.36L15.77 29.36Q13.19 29.36 11.20 28.28Q9.20 27.20 8.06 25.31Q6.92 23.42 6.92 21.02L6.92 21.02L6.92 6.65L11 6.65L11 20.81Q11 22.19 11.61 23.30Q12.23 24.41 13.31 25.02Q14.39 25.64 15.77 25.64L15.77 25.64Q17.18 25.64 18.24 25.02Q19.31 24.41 19.92 23.30Q20.54 22.19 20.54 20.81L20.54 20.81L20.54 6.65L24.62 6.65L24.62 21.02Q24.62 23.42 23.48 25.31Q22.34 27.20 20.34 28.28Q18.35 29.36 15.77 29.36ZM31.07 29L27.14 29L27.14 12.68L30.83 12.68L30.83 16.31L30.53 15.77Q31.10 13.94 32.31 13.22Q33.53 12.50 35.24 12.50L35.24 12.50L36.20 12.50L36.20 15.98L34.79 15.98Q33.11 15.98 32.09 17.02Q31.07 18.05 31.07 19.91L31.07 19.91L31.07 29ZM46.04 29.36L46.04 29.36Q44.27 29.36 42.79 28.66Q41.30 27.95 40.43 26.63L40.43 26.63L40.82 25.85L40.82 29L37.13 29L37.13 6.29L41.06 6.29L41.06 15.92L40.46 15.11Q41.30 13.79 42.74 13.05Q44.18 12.32 46.07 12.32L46.07 12.32Q48.38 12.32 50.24 13.46Q52.10 14.60 53.20 16.52Q54.29 18.44 54.29 20.84L54.29 20.84Q54.29 23.21 53.21 25.16Q52.13 27.11 50.27 28.23Q48.41 29.36 46.04 29.36ZM45.59 25.76L45.59 25.76Q46.94 25.76 47.99 25.13Q49.04 24.50 49.63 23.39Q50.21 22.28 50.21 20.84L50.21 20.84Q50.21 19.40 49.63 18.30Q49.04 17.21 47.99 16.57Q46.94 15.92 45.59 15.92L45.59 15.92Q44.30 15.92 43.27 16.55Q42.23 17.18 41.65 18.30Q41.06 19.43 41.06 20.84L41.06 20.84Q41.06 22.28 41.65 23.39Q42.23 24.50 43.27 25.13Q44.30 25.76 45.59 25.76ZM61.01 29.36L61.01 29.36Q59.30 29.36 58.04 28.79Q56.78 28.22 56.09 27.16Q55.40 26.09 55.40 24.68L55.40 24.68Q55.40 23.33 56.00 22.27Q56.60 21.20 57.86 20.48Q59.12 19.76 61.04 19.46L61.04 19.46L66.38 18.59L66.38 21.59L61.79 22.37Q60.62 22.58 60.05 23.12Q59.48 23.66 59.48 24.53L59.48 24.53Q59.48 25.37 60.13 25.87Q60.77 26.36 61.73 26.36L61.73 26.36Q62.96 26.36 63.91 25.84Q64.85 25.31 65.38 24.38Q65.90 23.45 65.90 22.34L65.90 22.34L65.90 18.14Q65.90 17.09 65.08 16.38Q64.25 15.68 62.90 15.68L62.90 15.68Q61.64 15.68 60.67 16.36Q59.69 17.03 59.24 18.14L59.24 18.14L56.03 16.58Q56.51 15.29 57.55 14.35Q58.58 13.40 59.99 12.86Q61.40 12.32 63.05 12.32L63.05 12.32Q65.06 12.32 66.59 13.05Q68.12 13.79 68.98 15.10Q69.83 16.40 69.83 18.14L69.83 18.14L69.83 29L66.11 29L66.11 26.21L66.95 26.15Q66.32 27.20 65.45 27.91Q64.58 28.61 63.47 28.98Q62.36 29.36 61.01 29.36ZM76.16 29L72.23 29L72.23 12.68L75.92 12.68L75.92 15.89L75.62 15.32Q76.19 13.85 77.50 13.09Q78.80 12.32 80.54 12.32L80.54 12.32Q82.34 12.32 83.73 13.10Q85.13 13.88 85.91 15.28Q86.69 16.67 86.69 18.50L86.69 18.50L86.69 29L82.76 29L82.76 19.43Q82.76 18.35 82.34 17.57Q81.92 16.79 81.19 16.36Q80.45 15.92 79.46 15.92L79.46 15.92Q78.50 15.92 77.75 16.36Q77 16.79 76.58 17.57Q76.16 18.35 76.16 19.43L76.16 19.43L76.16 29ZM106.88 29L93.23 29L93.23 6.65L97.31 6.65L97.31 25.40L106.88 25.40L106.88 29ZM115.94 29.36L115.94 29.36Q113.54 29.36 111.57 28.25Q109.61 27.14 108.45 25.22Q107.30 23.30 107.30 20.84L107.30 20.84Q107.30 18.38 108.45 16.46Q109.61 14.54 111.56 13.43Q113.51 12.32 115.94 12.32L115.94 12.32Q118.34 12.32 120.29 13.43Q122.24 14.54 123.39 16.45Q124.55 18.35 124.55 20.84L124.55 20.84Q124.55 23.30 123.38 25.22Q122.21 27.14 120.26 28.25Q118.31 29.36 115.94 29.36ZM115.94 25.76L115.94 25.76Q117.26 25.76 118.26 25.13Q119.27 24.50 119.85 23.38Q120.44 22.25 120.44 20.84L120.44 20.84Q120.44 19.40 119.85 18.30Q119.27 17.21 118.26 16.57Q117.26 15.92 115.94 15.92L115.94 15.92Q114.59 15.92 113.57 16.57Q112.55 17.21 111.96 18.30Q111.38 19.40 111.38 20.84L111.38 20.84Q111.38 22.25 111.96 23.38Q112.55 24.50 113.57 25.13Q114.59 25.76 115.94 25.76ZM134.21 35.60L134.21 35.60Q132.38 35.60 130.82 35Q129.26 34.40 128.13 33.34Q127.01 32.27 126.50 30.83L126.50 30.83L130.16 29.45Q130.52 30.59 131.58 31.30Q132.65 32 134.21 32L134.21 32Q135.41 32 136.32 31.55Q137.24 31.10 137.75 30.25Q138.26 29.39 138.26 28.19L138.26 28.19L138.26 24.47L139.01 25.37Q138.17 26.84 136.76 27.59Q135.35 28.34 133.55 28.34L133.55 28.34Q131.27 28.34 129.47 27.29Q127.67 26.24 126.65 24.41Q125.63 22.58 125.63 20.30L125.63 20.30Q125.63 17.99 126.65 16.19Q127.67 14.39 129.44 13.36Q131.21 12.32 133.46 12.32L133.46 12.32Q135.29 12.32 136.68 13.09Q138.08 13.85 139.01 15.29L139.01 15.29L138.47 16.28L138.47 12.68L142.19 12.68L142.19 28.19Q142.19 30.32 141.15 32Q140.12 33.68 138.33 34.64Q136.55 35.60 134.21 35.60ZM134.03 24.71L134.03 24.71Q135.29 24.71 136.23 24.16Q137.18 23.60 137.72 22.61Q138.26 21.62 138.26 20.33L138.26 20.33Q138.26 19.07 137.70 18.07Q137.15 17.06 136.20 16.49Q135.26 15.92 134.03 15.92L134.03 15.92Q132.80 15.92 131.81 16.49Q130.82 17.06 130.26 18.07Q129.71 19.07 129.71 20.33L129.71 20.33Q129.71 21.59 130.26 22.58Q130.82 23.57 131.79 24.14Q132.77 24.71 134.03 24.71ZM148.55 29L144.62 29L144.62 12.68L148.55 12.68L148.55 29ZM148.55 10.85L144.62 10.85L144.62 6.65L148.55 6.65L148.55 10.85ZM157.16 29.36L157.16 29.36Q154.55 29.36 152.62 28.11Q150.68 26.87 149.96 24.74L149.96 24.74L152.90 23.33Q153.53 24.71 154.66 25.49Q155.78 26.27 157.16 26.27L157.16 26.27Q158.24 26.27 158.87 25.79Q159.50 25.31 159.50 24.53L159.50 24.53Q159.50 24.05 159.25 23.73Q158.99 23.42 158.56 23.20Q158.12 22.97 157.61 22.82L157.61 22.82L154.94 22.07Q152.87 21.47 151.81 20.24Q150.74 19.01 150.74 17.33L150.74 17.33Q150.74 15.83 151.50 14.71Q152.27 13.58 153.63 12.95Q155 12.32 156.77 12.32L156.77 12.32Q159.08 12.32 160.85 13.43Q162.62 14.54 163.37 16.55L163.37 16.55L160.37 17.96Q159.95 16.85 158.96 16.19Q157.97 15.53 156.74 15.53L156.74 15.53Q155.75 15.53 155.18 15.98Q154.61 16.43 154.61 17.15L154.61 17.15Q154.61 17.60 154.85 17.93Q155.09 18.26 155.53 18.47Q155.96 18.68 156.53 18.86L156.53 18.86L159.14 19.64Q161.15 20.24 162.25 21.44Q163.34 22.64 163.34 24.38L163.34 24.38Q163.34 25.85 162.56 26.98Q161.78 28.10 160.40 28.73Q159.02 29.36 157.16 29.36ZM172.58 29.18L172.58 29.18Q169.82 29.18 168.31 27.66Q166.79 26.15 166.79 23.39L166.79 23.39L166.79 16.19L163.97 16.19L163.97 12.68L164.27 12.68Q165.47 12.68 166.13 12.05Q166.79 11.42 166.79 10.22L166.79 10.22L166.79 8.96L170.72 8.96L170.72 12.68L174.47 12.68L174.47 16.19L170.72 16.19L170.72 23.18Q170.72 23.99 171.00 24.56Q171.29 25.13 171.91 25.43Q172.52 25.73 173.48 25.73L173.48 25.73Q173.69 25.73 173.97 25.70Q174.26 25.67 174.53 25.64L174.53 25.64L174.53 29Q174.11 29.06 173.57 29.12Q173.03 29.18 172.58 29.18ZM180.23 29L176.30 29L176.30 12.68L180.23 12.68L180.23 29ZM180.23 10.85L176.30 10.85L176.30 6.65L180.23 6.65L180.23 10.85ZM190.49 29.36L190.49 29.36Q188.06 29.36 186.13 28.23Q184.19 27.11 183.08 25.18Q181.97 23.24 181.97 20.81L181.97 20.81Q181.97 18.38 183.08 16.46Q184.19 14.54 186.13 13.43Q188.06 12.32 190.49 12.32L190.49 12.32Q192.23 12.32 193.73 12.94Q195.23 13.55 196.33 14.62Q197.42 15.68 197.90 17.15L197.90 17.15L194.45 18.65Q194 17.42 192.94 16.67Q191.87 15.92 190.49 15.92L190.49 15.92Q189.20 15.92 188.20 16.55Q187.19 17.18 186.62 18.29Q186.05 19.40 186.05 20.84L186.05 20.84Q186.05 22.28 186.62 23.39Q187.19 24.50 188.20 25.13Q189.20 25.76 190.49 25.76L190.49 25.76Q191.90 25.76 192.95 25.01Q194 24.26 194.45 23L194.45 23L197.90 24.56Q197.42 25.94 196.34 27.04Q195.26 28.13 193.76 28.75Q192.26 29.36 190.49 29.36ZM205.85 29.36L205.85 29.36Q203.24 29.36 201.31 28.11Q199.37 26.87 198.65 24.74L198.65 24.74L201.59 23.33Q202.22 24.71 203.35 25.49Q204.47 26.27 205.85 26.27L205.85 26.27Q206.93 26.27 207.56 25.79Q208.19 25.31 208.19 24.53L208.19 24.53Q208.19 24.05 207.94 23.73Q207.68 23.42 207.25 23.20Q206.81 22.97 206.30 22.82L206.30 22.82L203.63 22.07Q201.56 21.47 200.50 20.24Q199.43 19.01 199.43 17.33L199.43 17.33Q199.43 15.83 200.20 14.71Q200.96 13.58 202.33 12.95Q203.69 12.32 205.46 12.32L205.46 12.32Q207.77 12.32 209.54 13.43Q211.31 14.54 212.06 16.55L212.06 16.55L209.06 17.96Q208.64 16.85 207.65 16.19Q206.66 15.53 205.43 15.53L205.43 15.53Q204.44 15.53 203.87 15.98Q203.30 16.43 203.30 17.15L203.30 17.15Q203.30 17.60 203.54 17.93Q203.78 18.26 204.22 18.47Q204.65 18.68 205.22 18.86L205.22 18.86L207.83 19.64Q209.84 20.24 210.94 21.44Q212.03 22.64 212.03 24.38L212.03 24.38Q212.03 25.85 211.25 26.98Q210.47 28.10 209.09 28.73Q207.71 29.36 205.85 29.36Z" fill="#0A2463"></path></g>
        
      </svg>