<svg viewBox="0 0 347 43" xmlns="http://www.w3.org/2000/svg" data-logo="logo">
        <g style="opacity: 1;" transform="translate(0, 1) rotate(0)" id="logogram"><path fill="#C26943" d="M20.3018 10.27C20.3018 15.7928 15.8246 20.27 10.3018 20.27H0.301758V10.27C0.301758 4.74714 4.7789 0.269989 10.3018 0.269989C15.8246 0.269989 20.3018 4.74714 20.3018 10.27Z"></path><path fill="#C26943" d="M20.3018 30.27C20.3018 24.7471 24.7789 20.27 30.3018 20.27H40.3018V30.27C40.3018 35.7928 35.8246 40.27 30.3018 40.27C24.7789 40.27 20.3018 35.7928 20.3018 30.27Z"></path><path fill="#C26943" d="M0.301758 30.27C0.301758 35.7928 4.7789 40.27 10.3018 40.27H20.3018V30.27C20.3018 24.7471 15.8246 20.27 10.3018 20.27C4.7789 20.27 0.301758 24.7471 0.301758 30.27Z"></path><path fill="#C26943" d="M40.3018 10.27C40.3018 4.74714 35.8246 0.269989 30.3018 0.269989H20.3018V10.27C20.3018 15.7928 24.7789 20.27 30.3018 20.27C35.8246 20.27 40.3018 15.7928 40.3018 10.27Z"></path></g>
        <g style="opacity: 1;" transform="translate(47, 4)" id="logotype"><path d="M15.76 29L9.25 7.67L13.02 7.67L17.37 22.26L21.70 7.67L25.03 7.67L18.96 29L15.76 29ZM7.73 29L7.73 7.67L11.32 7.67L11.87 21.73L11.87 29L7.73 29ZM22.86 21.73L23.39 7.67L26.99 7.67L26.99 29L22.86 29L22.86 21.73ZM28.75 21.62L28.75 21.62L28.75 20.55Q28.75 18.69 29.20 17.25Q29.65 15.82 30.48 14.84Q31.32 13.87 32.50 13.36Q33.68 12.86 35.14 12.86L35.14 12.86Q36.62 12.86 37.80 13.36Q38.98 13.87 39.82 14.84Q40.66 15.82 41.12 17.25Q41.57 18.69 41.57 20.55L41.57 20.55L41.57 21.62Q41.57 23.46 41.12 24.90Q40.66 26.33 39.82 27.32Q38.98 28.30 37.81 28.79Q36.63 29.29 35.17 29.29L35.17 29.29Q33.70 29.29 32.53 28.79Q31.35 28.30 30.50 27.32Q29.65 26.33 29.20 24.90Q28.75 23.46 28.75 21.62ZM32.87 20.55L32.87 20.55L32.87 21.62Q32.87 22.72 33.02 23.52Q33.16 24.33 33.46 24.85Q33.76 25.38 34.19 25.63Q34.61 25.88 35.17 25.88L35.17 25.88Q35.73 25.88 36.17 25.63Q36.61 25.38 36.89 24.85Q37.18 24.33 37.32 23.52Q37.45 22.72 37.45 21.62L37.45 21.62L37.45 20.55Q37.45 19.48 37.29 18.67Q37.13 17.85 36.84 17.33Q36.55 16.81 36.11 16.54Q35.68 16.27 35.14 16.27L35.14 16.27Q34.60 16.27 34.18 16.54Q33.76 16.81 33.46 17.33Q33.16 17.85 33.02 18.67Q32.87 19.48 32.87 20.55ZM47.68 29L47.77 25.84L50.32 13.15L54.60 13.15L50.25 29L47.68 29ZM41.97 13.15L46.26 13.15L48.86 25.85L48.90 29L46.32 29L41.97 13.15ZM61.90 29.29L61.90 29.29Q60.27 29.29 59.02 28.79Q57.77 28.30 56.90 27.35Q56.04 26.41 55.58 25.06Q55.13 23.71 55.13 21.98L55.13 21.98L55.13 20.68Q55.13 18.75 55.57 17.29Q56.01 15.83 56.81 14.83Q57.62 13.84 58.80 13.35Q59.98 12.86 61.47 12.86L61.47 12.86Q62.97 12.86 64.10 13.35Q65.24 13.84 65.98 14.81Q66.73 15.79 67.11 17.22Q67.49 18.66 67.49 20.56L67.49 20.56L67.49 22.44L56.87 22.44L56.87 19.55L63.47 19.55L63.47 19.19Q63.47 18.22 63.26 17.57Q63.06 16.92 62.62 16.59Q62.18 16.27 61.44 16.27L61.44 16.27Q60.83 16.27 60.40 16.52Q59.98 16.77 59.73 17.30Q59.48 17.82 59.36 18.67Q59.25 19.51 59.25 20.68L59.25 20.68L59.25 21.98Q59.25 23.07 59.44 23.81Q59.63 24.56 60.00 25.02Q60.37 25.48 60.92 25.68Q61.46 25.88 62.18 25.88L62.18 25.88Q63.26 25.88 64.13 25.49Q65.00 25.10 65.62 24.43L65.62 24.43L67.26 26.92Q66.83 27.48 66.09 28.03Q65.34 28.59 64.30 28.94Q63.26 29.29 61.90 29.29ZM69.01 6.50L73.12 6.50L73.12 29L69.01 29L69.01 6.50ZM75.52 13.15L79.63 13.15L79.63 29L75.52 29L75.52 13.15ZM75.33 9.03L75.33 9.03Q75.33 8.08 75.93 7.47Q76.54 6.85 77.58 6.85L77.58 6.85Q78.61 6.85 79.21 7.47Q79.81 8.08 79.81 9.03L79.81 9.03Q79.81 9.99 79.21 10.61Q78.61 11.23 77.58 11.23L77.58 11.23Q76.54 11.23 75.93 10.61Q75.33 9.99 75.33 9.03ZM85.58 13.15L85.86 16.53L85.86 29L81.75 29L81.75 13.15L85.58 13.15ZM85.25 20.53L85.25 20.53L84.15 20.56Q84.12 18.78 84.49 17.35Q84.87 15.93 85.56 14.93Q86.26 13.93 87.22 13.39Q88.19 12.86 89.41 12.86L89.41 12.86Q90.33 12.86 91.10 13.18Q91.87 13.50 92.42 14.21Q92.98 14.91 93.29 16.07Q93.60 17.22 93.60 18.92L93.60 18.92L93.60 29L89.48 29L89.48 18.89Q89.48 17.87 89.28 17.30Q89.07 16.74 88.67 16.51Q88.26 16.29 87.63 16.29L87.63 16.29Q87.05 16.29 86.59 16.61Q86.14 16.93 85.84 17.51Q85.54 18.09 85.39 18.86Q85.23 19.64 85.25 20.53ZM94.66 13.15L99.05 13.15L101.01 17.18L102.70 13.15L107.05 13.15L102.99 20.90L107.21 29L102.83 29L100.82 24.83L98.90 29L94.51 29L98.54 20.94L94.66 13.15ZM123.16 23.39L123.16 23.39Q123.16 22.82 123.05 22.35Q122.95 21.88 122.62 21.49Q122.29 21.09 121.67 20.69Q121.05 20.30 120.05 19.87L120.05 19.87Q118.86 19.38 117.75 18.81Q116.64 18.25 115.74 17.50Q114.85 16.75 114.33 15.74Q113.81 14.72 113.81 13.34L113.81 13.34Q113.81 11.99 114.30 10.89Q114.79 9.80 115.70 9.01Q116.61 8.23 117.83 7.80Q119.05 7.38 120.56 7.38L120.56 7.38Q122.61 7.38 124.12 8.23Q125.62 9.08 126.45 10.56Q127.27 12.04 127.27 13.96L127.27 13.96L123.00 13.96Q123.00 13.05 122.74 12.35Q122.48 11.66 121.93 11.26Q121.37 10.87 120.49 10.87L120.49 10.87Q119.67 10.87 119.14 11.19Q118.60 11.52 118.34 12.09Q118.09 12.65 118.09 13.36L118.09 13.36Q118.09 13.88 118.34 14.30Q118.60 14.72 119.05 15.05Q119.51 15.38 120.13 15.68Q120.75 15.99 121.50 16.29L121.50 16.29Q122.95 16.86 124.06 17.54Q125.18 18.22 125.93 19.06Q126.67 19.90 127.05 20.96Q127.43 22.01 127.43 23.36L127.43 23.36Q127.43 24.69 126.97 25.78Q126.51 26.88 125.63 27.66Q124.75 28.44 123.52 28.87Q122.28 29.29 120.75 29.29L120.75 29.29Q119.27 29.29 117.96 28.88Q116.64 28.46 115.63 27.60Q114.63 26.74 114.06 25.42Q113.49 24.09 113.49 22.28L113.49 22.28L117.78 22.28Q117.78 23.24 117.97 23.92Q118.16 24.61 118.56 25.01Q118.95 25.41 119.53 25.61Q120.11 25.81 120.86 25.81L120.86 25.81Q121.71 25.81 122.21 25.48Q122.72 25.16 122.94 24.62Q123.16 24.08 123.16 23.39ZM135.45 29.29L135.45 29.29Q133.83 29.29 132.57 28.79Q131.32 28.30 130.46 27.35Q129.59 26.41 129.14 25.06Q128.68 23.71 128.68 21.98L128.68 21.98L128.68 20.68Q128.68 18.75 129.12 17.29Q129.56 15.83 130.37 14.83Q131.17 13.84 132.35 13.35Q133.53 12.86 135.03 12.86L135.03 12.86Q136.52 12.86 137.66 13.35Q138.79 13.84 139.54 14.81Q140.29 15.79 140.67 17.22Q141.05 18.66 141.05 20.56L141.05 20.56L141.05 22.44L130.43 22.44L130.43 19.55L137.02 19.55L137.02 19.19Q137.02 18.22 136.81 17.57Q136.61 16.92 136.17 16.59Q135.73 16.27 135.00 16.27L135.00 16.27Q134.38 16.27 133.96 16.52Q133.53 16.77 133.28 17.30Q133.03 17.82 132.92 18.67Q132.80 19.51 132.80 20.68L132.80 20.68L132.80 21.98Q132.80 23.07 132.99 23.81Q133.18 24.56 133.55 25.02Q133.93 25.48 134.47 25.68Q135.01 25.88 135.73 25.88L135.73 25.88Q136.81 25.88 137.69 25.49Q138.56 25.10 139.17 24.43L139.17 24.43L140.81 26.92Q140.39 27.48 139.64 28.03Q138.89 28.59 137.85 28.94Q136.81 29.29 135.45 29.29ZM148.10 25.88L148.10 25.88Q148.67 25.88 149.09 25.65Q149.50 25.41 149.72 24.88Q149.94 24.36 149.96 23.52L149.96 23.52L153.81 23.52Q153.81 25.31 153.06 26.60Q152.30 27.90 151.03 28.60Q149.77 29.29 148.17 29.29L148.17 29.29Q146.57 29.29 145.39 28.78Q144.20 28.27 143.43 27.29Q142.66 26.30 142.27 24.89Q141.89 23.48 141.89 21.65L141.89 21.65L141.89 20.49Q141.89 18.69 142.27 17.27Q142.66 15.85 143.43 14.86Q144.20 13.88 145.38 13.37Q146.56 12.86 148.16 12.86L148.16 12.86Q149.87 12.86 151.13 13.57Q152.39 14.28 153.10 15.66Q153.81 17.03 153.81 19.05L153.81 19.05L149.96 19.05Q149.94 18.15 149.75 17.54Q149.55 16.93 149.14 16.60Q148.74 16.27 148.08 16.27L148.08 16.27Q147.39 16.27 146.98 16.56Q146.56 16.84 146.35 17.38Q146.13 17.91 146.06 18.70Q145.99 19.49 145.99 20.49L145.99 20.49L145.99 21.65Q145.99 22.72 146.05 23.50Q146.12 24.28 146.33 24.82Q146.54 25.35 146.96 25.62Q147.38 25.88 148.10 25.88ZM163.03 29L162.78 25.19L162.78 13.15L166.90 13.15L166.90 29L163.03 29ZM163.25 21.92L163.25 21.92L164.39 21.90Q164.39 23.49 164.08 24.85Q163.78 26.20 163.17 27.20Q162.56 28.19 161.63 28.74Q160.70 29.29 159.44 29.29L159.44 29.29Q158.47 29.29 157.66 28.96Q156.85 28.63 156.26 27.92Q155.68 27.21 155.35 26.09Q155.02 24.97 155.02 23.40L155.02 23.40L155.02 13.15L159.13 13.15L159.13 23.43Q159.13 24.08 159.24 24.54Q159.35 25.00 159.56 25.29Q159.78 25.59 160.06 25.71Q160.33 25.84 160.69 25.84L160.69 25.84Q161.65 25.84 162.22 25.33Q162.78 24.83 163.01 23.94Q163.25 23.05 163.25 21.92ZM172.69 13.15L172.92 16.68L172.92 29L168.82 29L168.82 13.15L172.69 13.15ZM176.66 13.03L176.66 13.03L176.60 17.12Q176.32 17.06 175.93 17.03Q175.54 17.00 175.25 17.00L175.25 17.00Q174.56 17.00 174.08 17.22Q173.60 17.43 173.28 17.85Q172.97 18.26 172.80 18.88Q172.64 19.49 172.61 20.27L172.61 20.27L171.84 19.98Q171.84 18.42 172.08 17.13Q172.32 15.83 172.80 14.87Q173.29 13.91 173.97 13.38Q174.65 12.86 175.51 12.86L175.51 12.86Q175.81 12.86 176.14 12.91Q176.47 12.96 176.66 13.03ZM177.89 13.15L182.01 13.15L182.01 29L177.89 29L177.89 13.15ZM177.70 9.03L177.70 9.03Q177.70 8.08 178.31 7.47Q178.92 6.85 179.96 6.85L179.96 6.85Q180.98 6.85 181.58 7.47Q182.18 8.08 182.18 9.03L182.18 9.03Q182.18 9.99 181.58 10.61Q180.98 11.23 179.96 11.23L179.96 11.23Q178.92 11.23 178.31 10.61Q177.70 9.99 177.70 9.03ZM183.04 13.15L191.12 13.15L191.12 16.24L183.04 16.24L183.04 13.15ZM184.90 24.61L184.90 9.24L188.99 9.24L188.99 24.17Q188.99 24.81 189.12 25.17Q189.25 25.53 189.52 25.67Q189.79 25.81 190.23 25.81L190.23 25.81Q190.55 25.81 190.82 25.77Q191.08 25.73 191.21 25.69L191.21 25.69L191.21 28.90Q190.73 29.09 190.19 29.19Q189.66 29.29 188.93 29.29L188.93 29.29Q187.70 29.29 186.80 28.83Q185.89 28.37 185.40 27.33Q184.90 26.29 184.90 24.61L184.90 24.61ZM195.32 30.25L196.34 27.18L199.65 13.15L203.93 13.15L198.72 31.37Q198.54 31.97 198.23 32.67Q197.93 33.37 197.42 33.99Q196.91 34.61 196.15 35.01Q195.39 35.40 194.32 35.40L194.32 35.40Q193.78 35.40 193.45 35.34Q193.12 35.27 192.62 35.12L192.62 35.12L192.62 31.93Q192.75 31.93 192.88 31.94Q193.00 31.94 193.12 31.94L193.12 31.94Q193.81 31.94 194.22 31.76Q194.63 31.58 194.89 31.20Q195.14 30.82 195.32 30.25L195.32 30.25ZM191.10 13.15L195.49 13.15L197.95 24.52L198.51 29.15L195.74 29.41L191.10 13.15ZM216.30 29L216.30 29L212.54 29L212.57 25.46L216.30 25.46Q217.86 25.46 218.72 24.90Q219.59 24.34 219.94 23.14Q220.30 21.94 220.30 19.99L220.30 19.99L220.30 16.67Q220.30 15.19 220.11 14.15Q219.92 13.12 219.47 12.48Q219.01 11.85 218.25 11.54Q217.49 11.23 216.36 11.23L216.36 11.23L212.47 11.23L212.47 7.67L216.36 7.67Q218.21 7.67 219.72 8.27Q221.23 8.87 222.31 10.02Q223.39 11.17 223.98 12.86Q224.57 14.54 224.57 16.70L224.57 16.70L224.57 19.99Q224.57 22.16 223.98 23.83Q223.39 25.50 222.32 26.65Q221.24 27.80 219.72 28.40Q218.19 29 216.30 29ZM210.74 7.67L215.03 7.67L215.03 29L210.74 29L210.74 7.67ZM232.82 29.29L232.82 29.29Q231.19 29.29 229.94 28.79Q228.69 28.30 227.82 27.35Q226.96 26.41 226.50 25.06Q226.05 23.71 226.05 21.98L226.05 21.98L226.05 20.68Q226.05 18.75 226.49 17.29Q226.93 15.83 227.73 14.83Q228.54 13.84 229.72 13.35Q230.90 12.86 232.39 12.86L232.39 12.86Q233.89 12.86 235.02 13.35Q236.16 13.84 236.90 14.81Q237.65 15.79 238.03 17.22Q238.41 18.66 238.41 20.56L238.41 20.56L238.41 22.44L227.79 22.44L227.79 19.55L234.38 19.55L234.38 19.19Q234.38 18.22 234.18 17.57Q233.97 16.92 233.54 16.59Q233.10 16.27 232.36 16.27L232.36 16.27Q231.75 16.27 231.32 16.52Q230.90 16.77 230.65 17.30Q230.40 17.82 230.28 18.67Q230.17 19.51 230.17 20.68L230.17 20.68L230.17 21.98Q230.17 23.07 230.36 23.81Q230.55 24.56 230.92 25.02Q231.29 25.48 231.84 25.68Q232.38 25.88 233.10 25.88L233.10 25.88Q234.18 25.88 235.05 25.49Q235.92 25.10 236.54 24.43L236.54 24.43L238.18 26.92Q237.75 27.48 237.01 28.03Q236.26 28.59 235.22 28.94Q234.18 29.29 232.82 29.29ZM239.93 6.50L244.04 6.50L244.04 29L239.93 29L239.93 6.50ZM246.44 13.15L250.55 13.15L250.55 29L246.44 29L246.44 13.15ZM246.24 9.03L246.24 9.03Q246.24 8.08 246.85 7.47Q247.46 6.85 248.50 6.85L248.50 6.85Q249.53 6.85 250.13 7.47Q250.73 8.08 250.73 9.03L250.73 9.03Q250.73 9.99 250.13 10.61Q249.53 11.23 248.50 11.23L248.50 11.23Q247.46 11.23 246.85 10.61Q246.24 9.99 246.24 9.03ZM257.34 29L257.43 25.84L259.98 13.15L264.25 13.15L259.90 29L257.34 29ZM251.63 13.15L255.92 13.15L258.51 25.85L258.55 29L255.98 29L251.63 13.15ZM271.55 29.29L271.55 29.29Q269.93 29.29 268.67 28.79Q267.42 28.30 266.56 27.35Q265.69 26.41 265.24 25.06Q264.78 23.71 264.78 21.98L264.78 21.98L264.78 20.68Q264.78 18.75 265.22 17.29Q265.66 15.83 266.47 14.83Q267.27 13.84 268.45 13.35Q269.63 12.86 271.13 12.86L271.13 12.86Q272.62 12.86 273.76 13.35Q274.89 13.84 275.64 14.81Q276.39 15.79 276.77 17.22Q277.15 18.66 277.15 20.56L277.15 20.56L277.15 22.44L266.53 22.44L266.53 19.55L273.12 19.55L273.12 19.19Q273.12 18.22 272.91 17.57Q272.71 16.92 272.27 16.59Q271.83 16.27 271.10 16.27L271.10 16.27Q270.48 16.27 270.06 16.52Q269.63 16.77 269.38 17.30Q269.14 17.82 269.02 18.67Q268.90 19.51 268.90 20.68L268.90 20.68L268.90 21.98Q268.90 23.07 269.09 23.81Q269.28 24.56 269.66 25.02Q270.03 25.48 270.57 25.68Q271.11 25.88 271.83 25.88L271.83 25.88Q272.91 25.88 273.79 25.49Q274.66 25.10 275.27 24.43L275.27 24.43L276.91 26.92Q276.49 27.48 275.74 28.03Q274.99 28.59 273.95 28.94Q272.91 29.29 271.55 29.29ZM282.34 13.15L282.57 16.68L282.57 29L278.47 29L278.47 13.15L282.34 13.15ZM286.31 13.03L286.31 13.03L286.25 17.12Q285.97 17.06 285.58 17.03Q285.19 17.00 284.90 17.00L284.90 17.00Q284.21 17.00 283.73 17.22Q283.25 17.43 282.93 17.85Q282.62 18.26 282.46 18.88Q282.29 19.49 282.26 20.27L282.26 20.27L281.49 19.98Q281.49 18.42 281.73 17.13Q281.97 15.83 282.46 14.87Q282.94 13.91 283.62 13.38Q284.30 12.86 285.17 12.86L285.17 12.86Q285.46 12.86 285.79 12.91Q286.12 12.96 286.31 13.03ZM290.31 30.25L291.34 27.18L294.65 13.15L298.92 13.15L293.71 31.37Q293.53 31.97 293.23 32.67Q292.92 33.37 292.41 33.99Q291.91 34.61 291.15 35.01Q290.38 35.40 289.32 35.40L289.32 35.40Q288.77 35.40 288.44 35.34Q288.11 35.27 287.62 35.12L287.62 35.12L287.62 31.93Q287.75 31.93 287.87 31.94Q288.00 31.94 288.11 31.94L288.11 31.94Q288.80 31.94 289.21 31.76Q289.62 31.58 289.88 31.20Q290.14 30.82 290.31 30.25L290.31 30.25ZM286.09 13.15L290.49 13.15L292.95 24.52L293.50 29.15L290.74 29.41L286.09 13.15Z" fill="#050505"></path></g>
        
      </svg>